<svg width="378" height="378" viewBox="0 0 378 378" fill="none" xmlns="http://www.w3.org/2000/svg">
<path d="M306.777 377.128H71.1523C32.1093 377.128 0.464844 345.484 0.464844 306.441V70.8157C0.464844 31.7726 32.1093 0.128174 71.1523 0.128174H306.777C345.82 0.128174 377.465 31.7726 377.465 70.8157V306.441C377.465 345.484 345.82 377.128 306.777 377.128Z" fill="#F0F7FF"/>
<path d="M188.967 188.628C207.881 188.628 223.214 173.295 223.214 154.38C223.214 135.466 207.881 120.132 188.967 120.132C170.052 120.132 154.719 135.466 154.719 154.38C154.719 173.295 170.052 188.628 188.967 188.628Z" fill="#002855"/>
<path d="M214.65 200.05H163.279C145.966 200.05 131.891 214.126 131.891 231.438V248.562C131.891 253.288 135.726 257.124 140.453 257.124H237.476C242.203 257.124 246.038 253.288 246.038 248.562V231.438C246.038 214.126 231.963 200.05 214.65 200.05Z" fill="#002855"/>
</svg>
